<?xml version="1.0" standalone="no"?>
<!DOCTYPE svg PUBLIC "-//W3C//DTD SVG 20010904//EN"
 "http://www.w3.org/TR/2001/REC-SVG-20010904/DTD/svg10.dtd">
<svg version="1.0" xmlns="http://www.w3.org/2000/svg"
 width="16.000000pt" height="16.000000pt" viewBox="0 0 16.000000 16.000000"
 preserveAspectRatio="xMidYMid meet">
<metadata>
Created by potrace 1.11, written by Peter Selinger 2001-2013
</metadata>
<g transform="translate(0.000000,16.000000) scale(0.002508,-0.002508)"
fill="#000000" stroke="none">
<path d="M3168 6185 c-2 -2 -32 -6 -68 -9 -577 -59 -1117 -276 -1565 -630
-346 -273 -623 -612 -820 -1005 -58 -116 -125 -271 -118 -271 3 0 1 -6 -5 -12
-24 -31 -115 -349 -141 -493 -6 -33 -13 -69 -15 -80 -2 -11 -7 -45 -11 -75 -4
-30 -9 -63 -11 -72 -22 -118 -21 -574 1 -690 2 -11 9 -54 15 -96 22 -164 61
-326 122 -505 39 -115 117 -306 152 -372 9 -16 16 -33 16 -37 0 -4 -139 -100
-309 -213 -170 -113 -321 -219 -336 -237 -95 -113 -100 -232 -13 -365 58 -89
82 -114 141 -145 51 -27 171 -31 227 -9 19 8 174 106 343 218 l309 204 41 -48
c312 -362 731 -658 1173 -829 97 -37 280 -97 334 -109 8 -2 42 -10 75 -18 33
-8 78 -18 100 -22 22 -4 49 -9 60 -11 178 -31 278 -39 520 -39 206 0 330 6
405 20 14 2 41 7 60 9 349 47 839 230 1118 417 24 16 45 29 47 29 12 0 271
193 295 219 3 4 23 21 45 39 141 118 350 349 467 516 266 378 417 742 513
1236 3 14 8 45 11 70 3 25 7 56 10 70 23 143 23 579 0 720 -3 14 -7 47 -11 73
-25 197 -120 540 -202 727 -102 232 -261 508 -367 637 -8 10 -45 56 -83 103
-294 368 -734 690 -1193 873 -138 56 -355 123 -455 143 -138 27 -180 34 -240
43 -146 21 -186 24 -407 26 -125 1 -229 1 -230 0z m506 -391 c147 -18 164 -21
296 -50 338 -76 673 -229 965 -442 94 -69 119 -90 219 -182 449 -414 740 -970
821 -1573 23 -165 28 -486 10 -627 -73 -598 -327 -1136 -727 -1540 -223 -227
-428 -378 -693 -512 -95 -48 -155 -73 -335 -144 -96 -37 -394 -105 -522 -118
-32 -3 -84 -9 -115 -12 -112 -12 -420 -6 -513 10 -14 3 -47 7 -73 11 -245 31
-558 131 -810 259 -597 304 -1059 836 -1282 1478 -33 95 -72 233 -81 288 -2
14 -7 36 -10 50 -9 37 -18 93 -30 180 -24 169 -23 538 1 659 2 14 7 45 10 71
22 196 120 505 233 741 162 335 422 663 702 885 41 32 77 62 80 65 3 3 57 40
120 81 348 231 739 374 1150 423 140 16 449 16 584 -1z"/>
<path d="M3327 5564 c-1 -1 -50 -5 -109 -8 -58 -4 -117 -9 -129 -11 -13 -3
-41 -7 -64 -11 -676 -99 -1300 -515 -1658 -1107 -80 -132 -207 -402 -221 -472
-2 -5 -13 -43 -25 -83 -20 -66 -50 -192 -66 -282 -27 -142 -40 -543 -21 -640
2 -14 7 -47 11 -75 41 -341 189 -720 399 -1025 129 -187 345 -412 526 -546
272 -201 582 -342 914 -414 50 -11 110 -23 135 -26 26 -3 49 -8 52 -10 11 -6
221 -18 314 -18 156 1 292 12 410 34 28 5 61 11 75 14 97 16 298 79 435 136
359 150 695 407 948 725 166 208 327 526 402 790 21 75 52 211 69 310 28 155
28 564 1 705 -3 13 -7 42 -10 65 -4 22 -11 58 -17 80 -5 22 -12 48 -13 57 -6
30 -37 143 -45 163 -4 11 -22 61 -40 110 -138 381 -399 744 -725 1009 -294
239 -659 411 -1020 482 -11 2 -31 6 -45 9 -23 4 -56 9 -142 20 -65 9 -335 23
-341 19z m1076 -1133 c33 -2 77 -56 77 -95 0 -102 -169 -137 -223 -46 -19 31
-16 82 6 109 17 21 68 40 97 36 14 -1 33 -3 43 -4z m-2395 -192 c82 -26 135
-86 150 -167 8 -47 7 -59 -14 -101 -13 -26 -35 -54 -49 -61 -27 -15 -27 -19 1
-24 94 -19 154 -96 154 -199 0 -68 -31 -129 -86 -172 -53 -39 -112 -59 -249
-81 -55 -8 -111 -17 -125 -20 -14 -2 -53 -7 -86 -11 -57 -5 -63 -4 -77 18 -8
13 -18 42 -21 64 -4 35 -27 187 -41 283 -3 17 -7 49 -10 70 -3 20 -8 48 -10
62 -3 14 -7 43 -11 65 -3 22 -7 51 -10 65 -2 14 -7 53 -10 86 -6 57 -5 63 17
77 13 9 49 18 79 22 30 4 57 8 60 10 3 2 32 6 65 10 33 3 76 10 95 14 47 10
132 5 178 -10z m2052 -64 c88 -35 101 -70 49 -130 -32 -36 -63 -44 -98 -25
-58 31 -158 13 -201 -36 -103 -118 7 -283 163 -245 108 25 101 26 136 -15 17
-21 31 -46 31 -55 0 -52 -111 -99 -232 -99 -204 0 -350 139 -343 326 5 139
107 257 252 294 55 14 191 5 243 -15z m-909 -10 c13 -4 41 -21 62 -37 35 -28
37 -28 37 -9 0 43 31 59 111 57 68 -1 75 -3 86 -26 6 -14 14 -79 18 -145 3
-66 8 -154 10 -195 12 -229 12 -230 -80 -237 -76 -6 -103 2 -111 32 -8 32 -19
32 -47 -1 -12 -14 -46 -34 -75 -43 -147 -50 -298 29 -353 185 -17 47 -20 75
-16 139 7 117 42 181 140 255 42 32 154 45 218 25z m1294 -9 c14 -18 14 -33 0
-405 -6 -179 -9 -183 -107 -180 -101 3 -107 12 -103 141 2 57 7 177 10 267 7
205 7 205 113 199 57 -3 77 -8 87 -22z m509 -20 c24 -14 53 -38 65 -53 l20
-28 1 27 c0 39 30 55 92 52 29 -2 62 -6 74 -9 22 -5 43 -40 39 -65 -1 -8 -5
-58 -9 -110 -14 -214 -19 -276 -22 -290 -1 -8 -3 -34 -3 -57 -1 -68 -25 -85
-109 -77 -68 6 -102 26 -102 60 0 19 -15 18 -31 -3 -36 -43 -140 -61 -218 -37
-121 36 -202 149 -204 286 -3 162 82 287 223 328 49 15 138 3 184 -24z m-2245
-5 c17 -30 24 -151 10 -167 -6 -8 -27 -14 -47 -14 -49 0 -98 -33 -113 -77 -11
-34 -10 -69 7 -275 4 -51 2 -59 -18 -72 -29 -18 -121 -28 -152 -16 -30 11 -37
44 -51 220 -3 41 -8 86 -10 100 -8 41 -18 172 -17 213 0 47 22 66 77 67 22 1
48 3 57 5 29 5 52 -21 64 -72 7 -30 12 -39 13 -23 4 83 148 171 180 111z m999
-874 c6 -5 12 -21 12 -38 0 -22 -19 -50 -83 -122 -45 -50 -88 -99 -94 -108
-11 -14 -3 -15 77 -13 69 2 93 -1 105 -12 21 -21 19 -70 -2 -79 -22 -9 -330
-18 -360 -10 -18 4 -23 12 -23 38 0 26 17 51 96 140 l95 107 -80 0 c-104 0
-111 3 -111 51 0 41 5 45 75 51 66 6 281 2 293 -5z m195 1 c9 -7 31 -53 48
-103 17 -49 35 -93 38 -98 4 -4 25 38 46 94 41 107 53 120 110 112 45 -6 55
-11 55 -27 0 -15 -161 -376 -209 -471 -26 -49 -27 -50 -77 -53 -39 -2 -53 1
-57 12 -4 9 11 53 32 98 l38 83 -74 168 c-58 133 -71 172 -62 183 14 17 89 18
112 2z m-618 -10 c18 -47 6 -126 -16 -112 -16 10 -57 -5 -79 -28 -18 -19 -19
-32 -16 -125 3 -92 1 -105 -15 -117 -21 -14 -87 -12 -103 4 -12 12 -11 6 -21
211 -7 162 -8 159 55 166 40 5 75 -18 66 -43 -3 -8 -1 -14 4 -14 6 0 10 4 10
9 0 4 11 20 25 35 26 28 82 36 90 14z m-452 -23 c77 -16 146 -131 133 -223
-19 -137 -158 -216 -260 -147 -21 14 -35 22 -33 18 3 -5 8 -51 12 -104 7 -109
7 -109 -60 -115 -65 -6 -69 3 -80 187 -3 58 -7 116 -9 130 -3 13 -7 66 -11
117 -8 113 -3 122 67 122 42 0 51 -3 55 -21 6 -20 6 -20 32 5 14 13 42 29 61
33 35 10 40 9 93 -2z m1427 -534 c37 -26 40 -88 6 -120 -34 -32 -104 -34 -143
-5 -31 23 -41 70 -23 104 25 47 109 58 160 21z m-1872 -117 c2 -11 -30 -90
-71 -175 l-74 -154 60 -87 c83 -120 106 -139 150 -116 28 14 56 0 76 -40 24
-49 14 -75 -38 -96 -83 -32 -202 -11 -252 46 -11 13 -52 70 -90 128 l-70 105
5 -52 c3 -29 9 -77 13 -105 4 -29 8 -75 8 -103 0 -43 -3 -51 -25 -61 -14 -7
-44 -14 -68 -17 -59 -6 -79 13 -87 84 -3 31 -7 65 -9 75 -2 11 -7 48 -11 84
-4 36 -9 72 -10 80 -1 8 -6 44 -10 80 -4 36 -9 74 -11 85 -1 11 -5 43 -9 70
-3 28 -9 58 -11 68 -3 10 1 29 10 41 12 19 28 25 77 31 76 9 86 0 99 -81 16
-104 23 -168 23 -193 -1 -38 12 -14 82 146 71 162 76 167 155 176 65 8 85 3
88 -19z m1602 -95 c9 -16 -2 -61 -65 -249 -42 -126 -82 -234 -90 -240 -19 -15
-94 -17 -121 -2 -16 8 -32 43 -59 127 -20 63 -38 115 -40 115 -3 0 -9 -19 -15
-42 -26 -102 -54 -184 -66 -199 -17 -20 -103 -24 -126 -7 -13 10 -188 451
-188 473 0 2 7 11 16 19 11 11 35 16 79 16 65 0 88 -11 99 -48 28 -98 68 -223
71 -220 1 1 17 55 34 118 18 63 39 121 48 128 23 17 78 15 93 -3 7 -8 29 -67
50 -131 l37 -116 25 93 c14 52 29 109 33 126 10 47 38 63 112 63 53 0 64 -3
73 -21z m227 12 c55 -1 57 -8 54 -206 -3 -242 -6 -284 -19 -297 -17 -17 -101
-21 -134 -7 -31 13 -31 14 -28 184 4 203 8 291 14 307 8 17 30 26 56 22 8 -1
34 -3 57 -3z m539 -25 c99 -33 162 -110 171 -213 8 -81 0 -86 -122 -79 -55 3
-142 9 -192 12 l-93 5 10 -26 c14 -36 32 -53 77 -72 47 -19 110 -19 160 2 46
19 74 8 96 -38 20 -40 7 -60 -58 -89 -77 -34 -199 -31 -283 7 -76 34 -126 88
-147 159 -19 63 -19 99 0 162 44 150 214 226 381 170z m-1650 -8 c9 -9 16 -44
20 -98 2 -46 7 -104 9 -129 2 -25 7 -91 11 -146 7 -120 3 -126 -87 -131 -57
-2 -62 -1 -76 24 l-16 27 -34 -31 c-60 -55 -155 -64 -238 -24 -153 74 -192
320 -69 443 46 45 86 65 149 70 57 5 102 -8 139 -40 14 -13 26 -20 27 -15 5
50 9 54 62 62 57 9 86 5 103 -12z"/>
<path d="M1795 4076 c-33 -6 -59 -14 -58 -19 1 -4 5 -33 9 -65 5 -31 9 -60 10
-64 1 -5 2 -14 3 -22 1 -11 8 -13 30 -6 16 4 32 6 35 3 7 -8 103 26 116 42 6
7 15 27 20 45 8 27 5 35 -18 59 -33 35 -68 41 -147 27z"/>
<path d="M1909 3786 c-2 -2 -29 -7 -59 -11 -30 -4 -58 -10 -63 -14 -6 -6 2
-74 18 -148 6 -24 -1 -24 127 -2 76 13 109 39 110 87 2 49 -32 79 -96 87 -18
3 -35 3 -37 1z"/>
<path d="M3060 3999 c-75 -46 -83 -195 -14 -260 21 -20 36 -24 84 -24 51 0 63
4 88 28 16 15 33 43 39 61 22 70 -6 163 -59 195 -35 22 -102 22 -138 0z"/>
<path d="M4834 3991 c-34 -15 -74 -74 -80 -118 -8 -62 11 -117 53 -152 31 -25
43 -29 83 -26 60 4 86 20 110 70 35 73 25 158 -25 205 -27 25 -104 37 -141 21z"/>
<path d="M2693 3104 c-25 -19 -28 -29 -27 -75 0 -44 5 -56 28 -76 54 -46 136
-15 138 53 1 59 -3 72 -28 97 -31 32 -72 32 -111 1z"/>
<path d="M4594 2346 c-17 -8 -39 -25 -48 -37 -16 -23 -15 -24 7 -30 12 -3 60
-7 105 -8 46 -1 90 -5 98 -8 21 -8 17 20 -6 50 -19 24 -74 47 -110 47 -8 -1
-29 -7 -46 -14z"/>
<path d="M2790 2317 c-52 -26 -74 -114 -46 -182 22 -51 62 -72 128 -66 28 2
76 50 83 82 27 122 -66 216 -165 166z"/>
</g>
</svg>
